<svg width="120" height="125" viewBox="0 0 120 125" fill="none" xmlns="http://www.w3.org/2000/svg">
<path fill-rule="evenodd" clip-rule="evenodd" d="M7.62153 30.0948C25.4756 -0.829271 62.0844 -7.52503 89.3964 8.18326C114.889 22.8413 130.117 59.5854 112.217 90.4833C89.8511 129.11 27.8228 124.595 27.4587 124.618C23.6799 124.862 21.8609 123.812 19.2729 119.892C19.0846 119.607 -14.696 68.7499 7.62153 30.0948ZM31.896 107.777C44.1746 114.866 87.1901 123.33 107.67 87.8577C123.161 61.0266 112.045 26.7168 87.0334 12.2761C62.0213 -2.1646 27.6601 5.8893 12.1692 32.7204C-8.31051 68.1922 19.6174 100.688 31.896 107.777Z" fill="white"/>
<path d="M115.07 60.0851C115.07 90.8267 90.1491 115.748 59.4076 115.748C28.666 115.748 3.74512 90.8267 3.74512 60.0851C3.74512 29.3436 28.666 4.42271 59.4076 4.42271C90.1491 4.42271 115.07 29.3436 115.07 60.0851Z" fill="white"/>
<g clip-path="url(#clip0)">
<path fill-rule="evenodd" clip-rule="evenodd" d="M65.9345 99.2682C63.9244 99.599 61.8638 99.7723 59.7623 99.7723C38.9488 99.7723 22.0547 82.8309 22.0547 61.9638C22.0547 41.0967 38.9488 24.1554 59.7623 24.1554C80.5727 24.1554 97.4668 41.0967 97.4668 61.9638C97.4668 64.0779 97.2935 66.1511 96.9595 68.1739L90.9196 66.0471C91.0929 64.7112 91.1843 63.347 91.1843 61.9638C91.1843 44.5751 77.1038 30.4568 59.7623 30.4568C42.4177 30.4568 28.3403 44.5751 28.3403 61.9638C28.3403 79.3526 42.4177 93.4709 59.7623 93.4709C61.1801 93.4709 62.579 93.3763 63.9464 93.1936L65.9345 99.2682ZM62.2388 67.758C61.4763 68.0825 60.6414 68.2652 59.7623 68.2652C56.2934 68.2652 53.4767 65.4422 53.4767 61.9638C53.4767 58.4854 56.2934 55.6624 59.7623 55.6624C63.2281 55.6624 66.0448 58.4854 66.0448 61.9638C66.0448 62.6286 65.944 63.2682 65.7518 63.8668L96.4176 74.6612L84.8797 80.7294L97.6716 93.8773L91.7672 99.6336L78.8839 86.3534L72.0564 97.7621L62.2388 67.758ZM61.9457 87.0749C61.2242 87.1379 60.4964 87.1695 59.7623 87.1695C45.8866 87.1695 34.6228 75.8742 34.6228 61.9638C34.6228 48.0535 45.8866 36.7582 59.7623 36.7582C73.6349 36.7582 84.8986 48.0535 84.8986 61.9638C84.8986 62.616 84.8734 63.2619 84.8262 63.9015L81.7416 62.8177L81.7574 61.9638C81.7574 49.7927 71.902 39.9089 59.7623 39.9089C47.6227 39.9089 37.7641 49.7927 37.7641 61.9638C37.7641 74.135 47.6227 84.0187 59.7623 84.0187L60.9344 83.9872L61.9457 87.0749ZM58.8738 77.6921C50.6158 77.2321 44.0497 70.3605 44.0497 61.9638C44.0497 53.2679 51.0884 46.2103 59.7623 46.2103C67.9699 46.2103 74.7187 52.5369 75.4119 60.5901L72.0721 59.4149C70.8937 53.6775 65.8274 49.361 59.7623 49.361C52.8245 49.361 47.191 55.0071 47.191 61.9638C47.191 68.2526 51.7942 73.4702 57.8026 74.4154L58.8738 77.6921Z" fill="#E91E63"/>
</g>
<defs>
<clipPath id="clip0">
<rect width="75.6169" height="75.6169" fill="white" transform="translate(22.0547 24.1554)"/>
</clipPath>
</defs>
</svg>
