<svg width="120" height="125" viewBox="0 0 120 125" fill="none" xmlns="http://www.w3.org/2000/svg">
<path fill-rule="evenodd" clip-rule="evenodd" d="M7.62153 30.0948C25.4756 -0.829256 62.0844 -7.52501 89.3964 8.18328C114.889 22.8413 130.117 59.5854 112.217 90.4834C89.8511 129.11 27.8228 124.595 27.4587 124.618C23.6799 124.862 21.8609 123.812 19.2729 119.892C19.0846 119.607 -14.696 68.7499 7.62153 30.0948ZM31.896 107.777C44.1746 114.866 87.1901 123.33 107.67 87.8578C123.161 61.0266 112.045 26.7169 87.0334 12.2761C62.0213 -2.16458 27.6601 5.88932 12.1692 32.7204C-8.31051 68.1922 19.6174 100.688 31.896 107.777Z" fill="white"/>
<path d="M115.07 60.0852C115.07 90.8267 90.1491 115.748 59.4076 115.748C28.666 115.748 3.74512 90.8267 3.74512 60.0852C3.74512 29.3436 28.666 4.42273 59.4076 4.42273C90.1491 4.42273 115.07 29.3436 115.07 60.0852Z" fill="white"/>
<g clip-path="url(#clip0)">
<path d="M64.6065 45.3575L69.0585 40.9781L73.5136 45.4332L69.0585 49.8126L64.6065 45.3575ZM73.5167 97.6718H92.421V56.7127H73.5167V97.6718ZM71.7555 38.3315L76.2106 42.7866L80.7318 38.3441L76.2736 33.8858L71.7555 38.3315ZM73.6175 25.883L88.6496 40.915L92.421 22.0549L73.6175 25.883ZM48.3111 97.6718H67.2153V69.3155H48.3111V97.6718ZM23.1055 97.6718H42.0097V78.7676H23.1055V97.6718ZM66.3615 52.4624L61.9064 48.0073L57.3379 52.497L47.8858 43.0386L23.1811 67.6047L27.6236 72.0724L47.8731 51.9394L57.2969 61.3694L66.3615 52.4624Z" fill="#4CAF50"/>
</g>
<defs>
<clipPath id="clip0">
<rect width="75.6169" height="75.6169" fill="white" transform="translate(19.9546 22.0549)"/>
</clipPath>
</defs>
</svg>
