<svg width="120" height="125" viewBox="0 0 120 125" fill="none" xmlns="http://www.w3.org/2000/svg">
<path fill-rule="evenodd" clip-rule="evenodd" d="M7.62153 30.0948C25.4756 -0.829271 62.0844 -7.52503 89.3964 8.18326C114.889 22.8413 130.117 59.5854 112.217 90.4833C89.8511 129.11 27.8228 124.595 27.4587 124.618C23.6799 124.862 21.8609 123.812 19.2729 119.892C19.0846 119.607 -14.696 68.7499 7.62153 30.0948ZM31.896 107.777C44.1746 114.866 87.1901 123.33 107.67 87.8577C123.161 61.0266 112.045 26.7168 87.0334 12.2761C62.0213 -2.1646 27.6601 5.8893 12.1692 32.7204C-8.31051 68.1922 19.6174 100.688 31.896 107.777Z" fill="white"/>
<path d="M115.07 60.0851C115.07 90.8267 90.1491 115.748 59.4076 115.748C28.666 115.748 3.74512 90.8267 3.74512 60.0851C3.74512 29.3436 28.666 4.42271 59.4076 4.42271C90.1491 4.42271 115.07 29.3436 115.07 60.0851Z" fill="white"/>
<path d="M72.1632 86.6409L61.1944 80.1741H61.1283C60.7649 79.9431 60.2363 79.8441 59.6086 79.8441C58.6835 79.8441 57.8905 80.1411 57.2298 80.735L53.992 84.0344C53.9259 84.1004 53.7938 84.1664 53.6286 84.2324C53.4634 84.2983 53.3312 84.3313 53.2651 84.3313L52.5713 84.1994C52.1088 84.1004 51.415 83.8364 50.5229 83.3745C49.6309 82.9126 48.5406 82.2197 47.186 81.2629C45.8645 80.306 44.3447 78.9533 42.6597 77.2046C40.9087 75.4889 39.5872 74.0041 38.629 72.6844C37.6709 71.3646 36.9771 70.2758 36.5146 69.352C35.9859 68.3291 35.6556 67.4383 35.4904 66.6464C35.4904 66.5474 35.5234 66.3825 35.5895 66.2175C35.6556 66.0525 35.7216 65.9206 35.7877 65.8546L38.563 63.0831C39.0585 62.5881 39.3889 61.9942 39.5211 61.2684C39.6863 60.5425 39.5872 59.8826 39.2237 59.2887L33.1446 47.7737C32.8803 47.3448 32.5499 47.0149 32.1865 46.7179C31.8231 46.421 31.3605 46.289 30.865 46.289C30.1711 46.289 29.5765 46.5529 29.0478 47.0809L21.515 54.6035C21.1516 54.9335 20.8212 55.3954 20.5569 55.9233C20.2926 56.4842 20.0944 57.0121 20.0283 57.54C20.0283 57.606 19.9953 58.0019 19.9622 58.6618C19.9292 59.3547 19.9953 60.2785 20.1935 61.4663C20.3917 62.6541 20.7551 64.0729 21.2838 65.7226C21.8124 67.3723 22.6053 69.187 23.6625 71.2326C24.7198 73.2453 26.1074 75.4559 27.8584 77.8315C29.6095 80.2071 31.79 82.7146 34.4331 85.3212C37.77 88.6866 40.9087 91.3261 43.8491 93.2728C46.7896 95.1864 49.4327 96.6382 51.7784 97.595C54.0911 98.5519 56.0734 99.1787 57.6923 99.4097C59.3112 99.6407 60.4676 99.7726 61.1944 99.7726C61.4918 99.7726 61.7561 99.7726 61.9213 99.7396C62.1195 99.7066 62.2186 99.7066 62.2516 99.7066C62.7803 99.6407 63.3089 99.4757 63.8705 99.2117C64.4322 98.9478 64.8617 98.6178 65.1921 98.2549L72.7579 90.7652C73.3857 90.1383 73.683 89.3795 73.5508 88.4886C73.4187 87.7627 72.9562 87.1358 72.1632 86.6409Z" fill="#DBB146"/>
<path d="M86.8635 26.2559H50.5943C47.2171 26.2559 43.9131 29.5553 43.9131 32.8547V55.9507C43.9131 59.2501 47.2171 62.5495 50.5943 62.5495H57.1287C57.1287 62.5495 57.1012 66.5256 55.5907 69.745C54.1383 72.9644 50.5943 75.7472 50.5943 75.7472C50.5943 75.7472 58.4956 75.7472 64.073 71.8185C69.6503 67.8897 70.3442 62.5495 70.3442 62.5495H86.8635C90.1674 62.5495 93.4703 59.2501 93.4703 55.9507V32.8547C93.4703 29.5553 90.1674 26.2559 86.8635 26.2559ZM55.4768 49.3518C52.1729 49.3518 50.521 47.7021 50.521 44.4027C50.521 41.1033 52.1729 39.4536 55.4768 39.4536C58.7807 39.4536 60.4326 41.1033 60.4326 44.4027C60.4326 47.7021 58.7807 49.3518 55.4768 49.3518ZM68.6923 49.3518C67.0403 49.3518 65.3884 47.7021 65.3884 46.0524C65.3884 44.4027 67.0403 42.753 68.6923 42.753C70.3442 42.753 71.9961 44.4027 71.9961 46.0524C71.9961 47.7021 70.3442 49.3518 68.6923 49.3518ZM81.9077 49.3518C78.6038 49.3518 76.9519 47.7021 76.9519 44.4027C76.9519 41.1033 78.6038 39.4536 81.9077 39.4536C85.2116 39.4536 86.8635 41.1033 86.8635 44.4027C86.8635 47.7021 85.2116 49.3518 81.9077 49.3518Z" fill="#DBB146"/>
</svg>
