<svg width="120" height="125" viewBox="0 0 120 125" fill="none" xmlns="http://www.w3.org/2000/svg">
<path fill-rule="evenodd" clip-rule="evenodd" d="M7.62153 30.0948C25.4756 -0.829256 62.0844 -7.52501 89.3964 8.18328C114.889 22.8413 130.117 59.5854 112.217 90.4834C89.8511 129.11 27.8228 124.595 27.4587 124.618C23.6799 124.862 21.8609 123.812 19.2729 119.892C19.0846 119.607 -14.696 68.7499 7.62153 30.0948ZM31.896 107.777C44.1746 114.866 87.1901 123.33 107.67 87.8578C123.161 61.0266 112.045 26.7169 87.0334 12.2761C62.0213 -2.16458 27.6601 5.88932 12.1692 32.7204C-8.31051 68.1922 19.6174 100.688 31.896 107.777Z" fill="white"/>
<path d="M115.07 60.0853C115.07 90.8268 90.1491 115.748 59.4076 115.748C28.666 115.748 3.74512 90.8268 3.74512 60.0853C3.74512 29.3438 28.666 4.42285 59.4076 4.42285C90.1491 4.42285 115.07 29.3438 115.07 60.0853Z" fill="white"/>
<g clip-path="url(#clip0)">
<path d="M86.0457 52.1336C85.3036 38.302 73.8875 27.306 59.8634 27.306C45.8393 27.306 34.4232 38.302 33.681 52.1336C24.684 53.7544 17.854 61.6067 17.854 71.0658C17.854 81.6977 26.4764 90.3201 37.1083 90.3201H82.6185C93.2503 90.3201 101.873 81.6977 101.873 71.0658C101.873 61.6067 95.0427 53.7544 86.0457 52.1336Z" fill="#8BC34A"/>
<path d="M82.2685 62.4259V66.4046L67.3318 73.774V69.6104L77.8622 64.4143L67.3318 59.2052V55.0546L82.2685 62.4259ZM52.3952 69.6104L41.8648 64.4143L52.3952 59.2052V55.0546L37.4585 62.4259V66.4046L52.3952 73.774V69.6104ZM65.5525 49.4777H61.6727L54.1838 79.351H58.0543L65.5525 49.4777Z" fill="white"/>
</g>
<defs>
<clipPath id="clip0">
<rect width="84.0188" height="84.0188" fill="white" transform="translate(17.854 16.8037)"/>
</clipPath>
</defs>
</svg>
