<svg width="120" height="125" viewBox="0 0 120 125" fill="none" xmlns="http://www.w3.org/2000/svg">
<path fill-rule="evenodd" clip-rule="evenodd" d="M7.62153 30.0948C25.4756 -0.829256 62.0844 -7.52501 89.3964 8.18328C114.889 22.8413 130.117 59.5854 112.217 90.4834C89.8511 129.11 27.8228 124.595 27.4587 124.618C23.6799 124.862 21.8609 123.812 19.2729 119.892C19.0846 119.607 -14.696 68.7499 7.62153 30.0948ZM31.896 107.777C44.1746 114.866 87.1901 123.33 107.67 87.8578C123.161 61.0266 112.045 26.7169 87.0334 12.2761C62.0213 -2.16458 27.6601 5.88932 12.1692 32.7204C-8.31051 68.1922 19.6174 100.688 31.896 107.777Z" fill="white"/>
<path d="M115.07 60.0852C115.07 90.8267 90.1491 115.748 59.4076 115.748C28.666 115.748 3.74512 90.8267 3.74512 60.0852C3.74512 29.3436 28.666 4.42273 59.4076 4.42273C90.1491 4.42273 115.07 29.3436 115.07 60.0852Z" fill="white"/>
<path d="M46.8048 80.0394C43.3244 80.0394 40.5034 82.8603 40.5034 86.3408C40.5034 89.8212 43.3244 92.6422 46.8048 92.6422C50.2853 92.6422 53.1062 89.8212 53.1062 86.3408C53.1062 82.8603 50.2853 80.0394 46.8048 80.0394Z" fill="#39B7CD"/>
<path d="M73.5858 80.0394C69.8153 80.0394 66.7593 82.8603 66.7593 86.3408C66.7593 89.8212 69.8153 92.6422 73.5858 92.6422C77.3563 92.6422 80.4123 89.8212 80.4123 86.3408C80.4123 82.8603 77.3563 80.0394 73.5858 80.0394Z" fill="#39B7CD"/>
<path d="M65.7088 48.5323C58.2827 48.5323 42.763 48.5323 36.3022 48.5323C36.3022 48.5323 35.331 43.0168 34.9597 40.5839C34.5884 38.151 34.9968 40.547 21.8154 34.3542C18.6965 33.064 16.1345 38.7039 21.8154 41.6529L28.2762 44.307L35.9993 72.9121C35.9993 72.9121 36.9276 77.225 40.1208 77.225C44.0938 77.225 76.5088 77.225 79.8135 77.225C83.1552 77.225 84.613 69.0119 84.613 69.0119C84.613 69.0119 81.4623 68.7494 80.4121 68.4868C79.3618 68.2242 78.3116 67.9617 77.2614 67.4366L75.1609 66.3863L73.0604 65.3361L72.5353 64.811L72.0102 64.2859L69.9097 62.1854C68.3344 60.0849 65.1837 56.9342 65.7088 48.5323Z" fill="#39B7CD"/>
<path d="M84.6133 32.7788C75.3291 32.7788 67.8096 40.2983 67.8096 49.5826C67.8096 58.8668 75.3291 66.3863 84.6133 66.3863C93.8976 66.3863 101.417 58.8668 101.417 49.5826C101.417 40.2983 93.8976 32.7788 84.6133 32.7788ZM93.3605 46.8203L85.419 54.7618L84.5366 55.6442L84.1913 55.9895C83.7309 56.4498 83.002 56.4498 82.5416 55.9895L75.6743 49.1222C75.214 48.6618 75.214 47.9329 75.6743 47.4725L76.902 46.2448C77.3624 45.7845 78.0913 45.7845 78.5517 46.2448L83.424 51.1172L90.5599 43.9813C91.0202 43.5209 91.7492 43.5209 92.2095 43.9813L93.3605 45.1323C93.8209 45.631 93.8209 46.3599 93.3605 46.8203Z" fill="#39B7CD"/>
</svg>
