<svg width="120" height="125" viewBox="0 0 120 125" fill="none" xmlns="http://www.w3.org/2000/svg">
<path fill-rule="evenodd" clip-rule="evenodd" d="M7.62153 30.0948C25.4756 -0.829256 62.0844 -7.52501 89.3964 8.18328C114.889 22.8413 130.117 59.5854 112.217 90.4834C89.8511 129.11 27.8228 124.595 27.4587 124.618C23.6799 124.862 21.8609 123.812 19.2729 119.892C19.0846 119.607 -14.696 68.7499 7.62153 30.0948ZM31.896 107.777C44.1746 114.866 87.1901 123.33 107.67 87.8578C123.161 61.0266 112.045 26.7169 87.0334 12.2761C62.0213 -2.16458 27.6601 5.88932 12.1692 32.7204C-8.31051 68.1922 19.6174 100.688 31.896 107.777Z" fill="white"/>
<path d="M115.07 60.0852C115.07 90.8267 90.1491 115.748 59.4076 115.748C28.666 115.748 3.74512 90.8267 3.74512 60.0852C3.74512 29.3436 28.666 4.42273 59.4076 4.42273C90.1491 4.42273 115.07 29.3436 115.07 60.0852Z" fill="white"/>
<path d="M33.1945 37.9834L31.7729 31.507H90.0415L88.6199 37.9834H33.1945ZM28.5314 47.6981L27.1099 41.2216H94.7207L93.2959 47.6981H28.5314Z" fill="#03A9F4"/>
<path d="M97.4766 53.6402C97.5816 52.4698 96.6597 51.4614 95.4846 51.4614H25.2672C24.1014 51.4614 23.1827 52.4544 23.2732 53.6166L26.1136 90.1125C26.1942 91.1483 27.0546 91.9499 28.0935 91.9572L92.1548 92.4076C93.1955 92.4149 94.0679 91.623 94.1609 90.5864L97.4766 53.6402ZM32.2202 85.0564C30.9941 85.0564 30.0831 83.9571 30.5674 82.8307C31.1668 81.4363 32.2485 79.7639 34.1318 79.0008C36.8686 77.388 40.7556 76.2621 41.1522 75.2275C41.5488 74.1928 39.8036 71.302 39.8036 71.302C39.8036 71.302 38.7327 70.7847 38.6137 69.9022C38.4948 69.0197 39.1294 68.9284 39.1294 68.9284C39.1294 68.9284 38.4948 66.4027 38.6137 65.3681C38.7327 64.3334 39.2087 62.7206 41.4298 61.9294C43.651 61.1078 45.9118 61.26 47.181 61.473C48.4899 61.686 51.5439 62.7511 51.7819 65.0942C51.9406 66.7374 51.4249 68.0764 51.3059 68.7458C51.187 69.0197 51.5043 69.1718 51.5043 69.1718C51.5043 69.1718 51.7026 69.9935 51.2663 70.5412C50.8696 71.089 50.235 71.3628 50.235 71.3628C50.235 71.3628 49.2435 73.0669 49.1641 74.5884C49.1245 75.0753 49.5211 75.5318 49.6401 75.8056C50.1557 76.9924 56.1052 77.5402 58.2073 79.2443C59.2766 80.1265 59.9251 81.615 60.3042 82.8647C60.6516 84.0096 59.7349 85.0564 58.5384 85.0564H32.2202ZM86.9234 79.3203C86.9234 80.4043 86.0447 81.2831 84.9607 81.2831H72.7829C71.6989 81.2831 70.8202 80.4043 70.8202 79.3203C70.8202 78.2363 71.6989 77.3576 72.7829 77.3576H84.9607C86.0447 77.3576 86.9234 78.2363 86.9234 79.3203ZM86.9234 72.0779C86.9234 73.1619 86.0447 74.0407 84.9607 74.0407H67.0318C65.9478 74.0407 65.069 73.1619 65.069 72.0779C65.069 70.9939 65.9478 70.1152 67.0318 70.1152H84.9607C86.0447 70.1152 86.9234 70.9939 86.9234 72.0779ZM86.9234 64.6225C86.9234 65.7065 86.0447 66.5853 84.9607 66.5853H67.0318C65.9478 66.5853 65.069 65.7065 65.069 64.6225C65.069 63.5385 65.9478 62.6598 67.0318 62.6598H84.9607C86.0447 62.6598 86.9234 63.5385 86.9234 64.6225Z" fill="#03A9F4"/>
</svg>
