<svg width="170" height="47" viewBox="0 0 170 47" fill="none" xmlns="http://www.w3.org/2000/svg">
<path d="M7.008 16.576H0.512V12.32H18.272V16.576H11.744V36H7.008V16.576ZM26.2435 36.16C24.3022 36.16 22.7768 35.904 21.6675 35.392C20.5582 34.88 19.7475 33.9947 19.2355 32.736C18.7448 31.4773 18.4995 29.7067 18.4995 27.424C18.4995 25.0773 18.7342 23.2747 19.2035 22.016C19.6728 20.736 20.4408 19.84 21.5075 19.328C22.5955 18.816 24.1208 18.56 26.0835 18.56C27.8328 18.56 29.2088 18.7307 30.2115 19.072C31.2142 19.4133 31.9395 20.0107 32.3875 20.864C32.8568 21.7173 33.0915 22.9227 33.0915 24.48C33.0915 26.144 32.6115 27.328 31.6515 28.032C30.7128 28.736 29.3368 29.088 27.5235 29.088H23.2035C23.2462 30.0053 23.3848 30.72 23.6195 31.232C23.8542 31.7227 24.2702 32.0853 24.8675 32.32C25.4648 32.5333 26.3395 32.64 27.4915 32.64H32.5155V35.424C31.3848 35.6587 30.3608 35.84 29.4435 35.968C28.5262 36.096 27.4595 36.16 26.2435 36.16ZM27.0435 26.272C27.7048 26.272 28.1742 26.144 28.4515 25.888C28.7502 25.6107 28.8995 25.152 28.8995 24.512C28.8995 23.5733 28.6862 22.9227 28.2595 22.56C27.8328 22.176 27.1075 21.984 26.0835 21.984C25.3368 21.984 24.7502 22.112 24.3235 22.368C23.9182 22.6027 23.6195 23.0293 23.4275 23.648C23.2355 24.2667 23.1395 25.1413 23.1395 26.272H27.0435ZM42.887 36.192C40.6043 36.192 38.8337 35.5413 37.575 34.24C36.3163 32.9387 35.687 30.688 35.687 27.488C35.687 25.2053 35.9643 23.4133 36.519 22.112C37.0737 20.8107 37.8843 19.8933 38.951 19.36C40.0177 18.8267 41.3723 18.56 43.015 18.56C45.0843 18.56 47.079 18.8267 48.999 19.36V22.08H44.487C43.463 22.08 42.663 22.2293 42.087 22.528C41.511 22.8267 41.0843 23.36 40.807 24.128C40.551 24.896 40.423 26.0053 40.423 27.456C40.423 28.8853 40.551 29.9733 40.807 30.72C41.0843 31.4453 41.511 31.9467 42.087 32.224C42.663 32.48 43.4843 32.608 44.551 32.608H49.255V35.296C48.4443 35.552 47.4523 35.7653 46.279 35.936C45.1057 36.1067 43.975 36.192 42.887 36.192ZM51.8865 11.616H56.6225V20.576C57.2625 20.0213 58.0838 19.5413 59.0865 19.136C60.1105 18.7307 61.1132 18.528 62.0945 18.528C65.6145 18.528 67.3745 20.5653 67.3745 24.64V36H62.6385V25.248C62.6385 24.4587 62.4145 23.8507 61.9665 23.424C61.5185 22.9973 60.9212 22.784 60.1745 22.784C59.0012 22.784 57.8172 23.2107 56.6225 24.064V36H51.8865V11.616Z" fill="white"/>
<path d="M91.3658 36L89.5418 20.512L85.4138 36H80.9658L76.8378 20.704L75.0778 36H70.5018L73.2538 12.32H77.7978L83.2378 30.464L88.6458 12.32H93.1578L95.9418 36H91.3658ZM102.503 36.192C101.181 36.192 100.114 35.808 99.3033 35.04C98.5139 34.2507 98.1193 33.184 98.1193 31.84V30.304C98.1193 28.9387 98.5886 27.8507 99.5273 27.04C100.487 26.2293 101.906 25.824 103.783 25.824H108.167V24.64C108.167 24.064 108.071 23.616 107.879 23.296C107.687 22.9547 107.325 22.7093 106.791 22.56C106.258 22.3893 105.469 22.304 104.423 22.304H99.2713V19.552C101.383 18.912 103.677 18.592 106.151 18.592C108.413 18.592 110.098 19.0187 111.207 19.872C112.338 20.7253 112.903 22.208 112.903 24.32V36H109.159L108.391 34.176C108.157 34.4107 107.741 34.688 107.143 35.008C106.546 35.328 105.831 35.6053 104.999 35.84C104.189 36.0747 103.357 36.192 102.503 36.192ZM104.967 32.896C105.458 32.896 106.066 32.7893 106.791 32.576C107.517 32.3413 107.975 32.1707 108.167 32.064V28.064L105.287 28.256C103.666 28.384 102.855 29.088 102.855 30.368V31.072C102.855 32.288 103.559 32.896 104.967 32.896ZM116.449 18.816H120.417L121.185 20.448C122.785 19.1893 124.374 18.56 125.953 18.56C128.022 18.56 129.548 19.328 130.529 20.864C131.532 22.4 132.033 24.5867 132.033 27.424C132.033 30.368 131.574 32.576 130.657 34.048C129.761 35.4987 128.193 36.224 125.953 36.224C125.142 36.224 124.31 36.128 123.457 35.936C122.625 35.744 121.868 35.4667 121.185 35.104V43.584H116.449V18.816ZM124.417 32.32C125.292 32.32 125.985 31.968 126.497 31.264C127.03 30.5387 127.297 29.2587 127.297 27.424C127.297 25.5893 127.041 24.288 126.529 23.52C126.017 22.752 125.313 22.368 124.417 22.368C123.35 22.368 122.273 22.688 121.185 23.328V31.488C121.59 31.744 122.081 31.9467 122.657 32.096C123.254 32.2453 123.841 32.32 124.417 32.32Z" fill="#39B7CD"/>
<g clip-path="url(#clip0)">
<path d="M156.49 11.4057C152.021 8.82567 146.321 10.3532 143.741 14.8219C140.961 19.637 142.231 29.2232 142.873 32.9653C143.014 33.7862 143.857 34.2729 144.639 33.9853C148.189 32.6632 157.126 28.9703 159.906 24.1552C162.486 19.6865 160.959 13.9857 156.49 11.4057ZM150.157 22.3753C148.563 21.4553 148.017 19.4154 148.937 17.8219C149.857 16.2284 151.897 15.6818 153.49 16.6018C155.084 17.5218 155.63 19.5617 154.71 21.1552C153.79 22.7487 151.75 23.2953 150.157 22.3753Z" fill="#39B7CD"/>
</g>
<defs>
<clipPath id="clip0">
<rect width="32" height="32" fill="white" transform="translate(134 7)"/>
</clipPath>
</defs>
</svg>
