<svg width="120" height="125" viewBox="0 0 120 125" fill="none" xmlns="http://www.w3.org/2000/svg">
<path fill-rule="evenodd" clip-rule="evenodd" d="M7.62153 30.0948C25.4756 -0.829256 62.0844 -7.52501 89.3964 8.18328C114.889 22.8413 130.117 59.5854 112.217 90.4834C89.8511 129.11 27.8228 124.595 27.4587 124.618C23.6799 124.862 21.8609 123.812 19.2729 119.892C19.0846 119.607 -14.696 68.7499 7.62153 30.0948ZM31.896 107.777C44.1746 114.866 87.1901 123.33 107.67 87.8578C123.161 61.0266 112.045 26.7169 87.0334 12.2761C62.0213 -2.16458 27.6601 5.88932 12.1692 32.7204C-8.31051 68.1922 19.6174 100.688 31.896 107.777Z" fill="white"/>
<path d="M115.07 60.0852C115.07 90.8267 90.1491 115.748 59.4076 115.748C28.666 115.748 3.74512 90.8267 3.74512 60.0852C3.74512 29.3436 28.666 4.42273 59.4076 4.42273C90.1491 4.42273 115.07 29.3436 115.07 60.0852Z" fill="white"/>
<path d="M71.0979 24.6018C68.3428 25.34 67.26 32.1955 65.0659 37.0908C60.9928 46.1449 37.9043 51.4361 30.8215 53.3339C22.1569 55.6692 16.2771 61.956 18.6177 70.6911C20.9582 79.4262 29.6412 83.5505 38.2966 81.2313C45.8387 79.387 66.8705 71.402 75.6669 76.6543C79.5824 78.9886 84.2795 85.2194 87.3366 84.4003C89.1356 83.9182 90.5325 82.8917 91.3682 81.4313C92.2131 79.9548 92.3981 78.1795 91.8828 76.3065C90.6167 71.6318 79.6297 30.5773 79.5176 30.1589L79.505 30.1623C79.0841 28.4406 77.4631 26.7688 77.2248 26.5337C75.427 24.7055 73.2491 24.0253 71.0979 24.6018Z" fill="#717BFD"/>
<path d="M100.639 49.3049L91.0885 51.8638C90.3626 52.0583 89.5948 51.5357 89.3692 50.6936C89.1435 49.8515 89.5472 49.015 90.273 48.8205L99.8232 46.2615C100.549 46.067 101.317 46.5897 101.543 47.4318C101.768 48.2739 101.365 49.1104 100.639 49.3049Z" fill="#717BFD"/>
<path d="M88.083 39.6217C87.6093 39.7486 87.085 39.6867 86.6818 39.4044C85.9995 38.9365 85.9021 38.0229 86.4669 37.38L93.0582 29.8884C93.623 29.2455 94.6488 29.1008 95.331 29.5686C96.0132 30.0364 96.1106 30.9501 95.5459 31.593L88.9546 39.0845C88.7301 39.3471 88.4192 39.5316 88.083 39.6217Z" fill="#717BFD"/>
<path d="M104.256 67.9067C103.92 67.9967 103.571 67.9764 103.224 67.8418L93.6016 63.9836C92.7766 63.6521 92.3598 62.7072 92.7112 61.8817C93.0473 61.0602 93.9988 60.6427 94.8278 60.9894L104.45 64.8476C105.275 65.1792 105.692 66.124 105.341 66.9496C105.145 67.4408 104.729 67.7799 104.256 67.9067Z" fill="#717BFD"/>
<path d="M53.4438 76.5022C52.4296 76.645 36.4198 79.4132 35.4434 79.533C38.2602 86.5541 42.3788 92.3238 47.1979 95.907C47.9071 96.4262 48.8727 96.593 49.7864 96.3481L59.1013 93.8522C60.0287 93.6037 60.7919 92.9608 61.1296 92.1482C61.4673 91.3355 61.358 90.4364 60.8139 89.7697C57.3237 85.4179 55.0423 81.3223 53.4438 76.5022Z" fill="#717BFD"/>
</svg>
