<svg width="120" height="125" viewBox="0 0 120 125" fill="none" xmlns="http://www.w3.org/2000/svg">
<path fill-rule="evenodd" clip-rule="evenodd" d="M7.62153 30.0948C25.4756 -0.829256 62.0844 -7.52501 89.3964 8.18328C114.889 22.8413 130.117 59.5854 112.217 90.4834C89.8511 129.11 27.8228 124.595 27.4587 124.618C23.6799 124.862 21.8609 123.812 19.2729 119.892C19.0846 119.607 -14.696 68.7499 7.62153 30.0948ZM31.896 107.777C44.1746 114.866 87.1901 123.33 107.67 87.8578C123.161 61.0266 112.045 26.7169 87.0334 12.2761C62.0213 -2.16458 27.6601 5.88932 12.1692 32.7204C-8.31051 68.1922 19.6174 100.688 31.896 107.777Z" fill="white"/>
<path d="M115.07 60.0852C115.07 90.8267 90.1491 115.748 59.4076 115.748C28.666 115.748 3.74512 90.8267 3.74512 60.0852C3.74512 29.3436 28.666 4.42273 59.4076 4.42273C90.1491 4.42273 115.07 29.3436 115.07 60.0852Z" fill="white"/>
<path fill-rule="evenodd" clip-rule="evenodd" d="M41.0203 99.9938C40.8496 99.9938 40.6447 99.8173 40.2691 99.6056L28.1821 86.8997C27.8065 86.5115 27.8065 85.735 28.1821 85.3468L40.2691 72.641C40.6447 72.288 41.0203 72.288 41.5666 72.4998C41.9422 72.6763 42.1471 73.0645 42.1471 73.4527V81.3586H75.6426C76.5644 81.3586 77.3156 80.5821 77.3156 79.6292V70.7704C77.3156 70.3822 77.4863 70.2057 77.6912 69.9939L85.8858 61.5234C86.2614 61.1351 86.637 61.1351 87.0126 61.1351C87.3882 61.3116 87.7638 61.6998 87.7638 62.2998V81.5351C87.7638 88.2762 84.2128 91.9115 77.5205 91.9115H42.1471V98.8291C42.1471 99.2173 41.9763 99.6056 41.6008 99.782C41.3959 99.782 41.2252 99.9938 41.0203 99.9938Z" fill="#32D5A3"/>
<path fill-rule="evenodd" clip-rule="evenodd" d="M34.2793 61.1352C34.1084 61.1352 33.9035 61.1352 33.9035 61.1352C33.5277 60.9682 33.1519 60.601 33.1519 60.0334V41.8379C33.1519 35.4612 36.7049 32.0224 43.401 32.0224H78.7604V25.4787C78.7604 25.1114 78.9312 24.7442 79.307 24.5773C79.5462 24.377 79.717 24.377 79.717 24.377H79.8878C80.0928 24.377 80.2636 24.5439 80.4344 24.7442L92.7334 36.7632C93.1092 37.1305 93.1092 37.865 92.7334 38.2322L80.4344 50.2513C80.2636 50.4182 79.8878 50.6185 79.307 50.4182C78.9312 50.2513 78.7604 49.884 78.7604 49.5168V42.0383H45.075C44.3234 42.0383 43.5718 42.7728 43.5718 43.6742V52.0541C43.5718 52.4214 43.401 52.5883 43.196 52.7886L34.9967 60.8013C34.86 60.9348 34.4842 61.1352 34.2793 61.1352Z" fill="#32D5A3"/>
<path d="M62.1006 58.8624C64.5959 58.8624 66.499 59.5429 67.8096 60.904C69.1455 62.2651 69.8135 64.0547 69.8135 66.2728V67.6717C69.8135 70.6208 69.1203 72.7129 67.734 73.9479C66.3729 75.183 64.3313 75.8762 61.6091 76.0274V79.2411H57.9416V76.0274C55.2194 75.9014 52.8627 75.5737 50.8715 75.0444V69.8646C53.266 70.0915 56.1268 70.2049 59.454 70.2049C60.8655 70.2049 61.9115 70.0411 62.5921 69.7134C63.2726 69.3605 63.6129 68.743 63.6129 67.8608V67.1424C63.6129 66.4871 63.3987 65.983 62.9702 65.6301C62.5417 65.252 61.9745 65.063 61.2688 65.063H59.0759C56.1772 65.063 54.0096 64.4328 52.5728 63.1725C51.1613 61.887 50.4556 59.8202 50.4556 56.9719V55.6487C50.4556 50.8092 52.9761 48.1374 58.0173 47.6333L57.9416 45.1001L61.5334 44.6842L61.6091 47.5955C63.8019 47.7215 66.0831 48.0618 68.4524 48.6163V53.7582C64.9488 53.5314 62.34 53.418 60.626 53.418C59.2901 53.418 58.2945 53.607 57.6392 53.9851C56.9838 54.338 56.6562 55.0059 56.6562 55.9889V56.5182C56.6562 58.081 57.6014 58.8624 59.4918 58.8624H62.1006Z" fill="#32D5A3"/>
</svg>
