<svg width="120" height="125" viewBox="0 0 120 125" fill="none" xmlns="http://www.w3.org/2000/svg">
<path fill-rule="evenodd" clip-rule="evenodd" d="M7.62153 30.0948C25.4756 -0.829271 62.0844 -7.52503 89.3964 8.18326C114.889 22.8413 130.117 59.5854 112.217 90.4833C89.8511 129.11 27.8228 124.595 27.4587 124.618C23.6799 124.862 21.8609 123.812 19.2729 119.892C19.0846 119.607 -14.696 68.7499 7.62153 30.0948ZM31.896 107.777C44.1746 114.866 87.1901 123.33 107.67 87.8577C123.161 61.0266 112.045 26.7168 87.0334 12.2761C62.0213 -2.1646 27.6601 5.8893 12.1692 32.7204C-8.31051 68.1922 19.6174 100.688 31.896 107.777Z" fill="white"/>
<path d="M116.12 60.0851C116.12 90.8267 91.1994 115.748 60.4578 115.748C29.7163 115.748 4.79541 90.8267 4.79541 60.0851C4.79541 29.3436 29.7163 4.42271 60.4578 4.42271C91.1994 4.42271 116.12 29.3436 116.12 60.0851Z" fill="white"/>
<path d="M28.6475 69.5768C28.7363 69.5709 28.9159 69.5577 29.0048 69.5503C48.2521 69.5812 67.503 69.5503 86.7522 69.5665C88.1234 69.5503 89.5181 69.4677 90.8621 69.7567C90.8349 69.8157 90.7805 69.9351 90.7551 69.9941C90.7406 70.084 90.7134 70.2639 90.6989 70.3538C90.6608 70.429 90.5828 70.5779 90.5447 70.6531C90.5538 70.7165 90.5719 70.8433 90.581 70.9052C90.5665 70.9922 90.5392 71.1677 90.5247 71.2547C90.483 71.3298 90.4014 71.4802 90.3615 71.5554C90.367 71.6188 90.3778 71.7427 90.3851 71.8046L90.3597 71.9535C90.3198 72.0287 90.2364 72.1776 90.1946 72.2528C90.2019 72.3162 90.2146 72.4445 90.22 72.5093C90.2055 72.6008 90.1765 72.7821 90.162 72.8735C90.1221 72.9487 90.0405 73.1006 90.0006 73.1772C90.006 73.2392 90.0169 73.3645 90.0223 73.4264L89.9988 73.5753C89.9571 73.649 89.8736 73.7979 89.8319 73.8731C89.8373 73.9351 89.8482 74.0619 89.8537 74.1253C89.8337 74.2093 89.792 74.3759 89.772 74.4585C89.6523 74.5956 89.6143 74.7474 89.6578 74.9126C89.6469 74.9892 89.6288 75.144 89.6179 75.2207C89.578 75.2944 89.5 75.4433 89.4601 75.5171C89.4673 75.579 89.4837 75.7043 89.4909 75.7662C89.4782 75.8503 89.4546 76.0198 89.4438 76.1039C89.402 76.1776 89.3204 76.3265 89.2805 76.4002C89.2878 76.4636 89.3023 76.5904 89.3095 76.6538C89.295 76.7408 89.2678 76.9177 89.2551 77.0047C89.2152 77.0814 89.1336 77.2332 89.0937 77.3084C89.0992 77.3718 89.1119 77.4986 89.1173 77.5605L89.0901 77.7153C89.0484 77.7905 88.9631 77.9424 88.9214 78.0191C88.925 78.0839 88.9323 78.2137 88.9377 78.2786C88.916 78.3611 88.8761 78.5277 88.8561 78.6103C88.8434 78.6398 88.818 78.7002 88.8053 78.7297C88.7963 78.7946 88.7745 78.9214 88.7654 78.9863C88.7509 79.0777 88.7255 79.262 88.711 79.3534C88.6711 79.43 88.5895 79.5819 88.5478 79.6571C88.555 79.722 88.5659 79.8488 88.5732 79.9136C88.5532 79.9932 88.5133 80.1525 88.4952 80.2321C88.4825 80.2616 88.4571 80.3206 88.4444 80.35C88.4335 80.4134 88.4136 80.5402 88.4027 80.6036C88.39 80.6936 88.3628 80.872 88.3501 80.9619C88.3102 81.0371 88.2286 81.186 88.1887 81.2612C88.1977 81.3246 88.2122 81.4499 88.2195 81.5119C88.2068 81.5974 88.1796 81.7684 88.1651 81.8539C88.1324 81.9306 88.0671 82.0839 88.0345 82.1606L88.0563 82.2623C88.0399 82.3463 88.0055 82.5129 87.9873 82.5955C87.9474 82.6707 87.864 82.8226 87.8241 82.8992C87.8295 82.9612 87.8386 83.088 87.8441 83.1513L87.8187 83.3032C87.7769 83.3784 87.6953 83.5303 87.6554 83.6055C87.6627 83.6703 87.6754 83.8001 87.6826 83.8649C87.6699 83.9593 87.6445 84.1495 87.6318 84.2439C87.5919 84.3191 87.5121 84.4694 87.4722 84.5446L87.4777 84.6434C87.4777 84.7083 87.4813 84.8395 87.4831 84.9044L87.4505 85.0636C87.4178 85.1403 87.3507 85.2966 87.3181 85.3747L87.338 85.4794C87.3199 85.5649 87.2854 85.7359 87.2673 85.8214C87.2274 85.8966 87.1458 86.047 87.1059 86.1237C87.1131 86.1856 87.1276 86.3124 87.1331 86.3758C87.1222 86.4598 87.0986 86.6309 87.0859 86.7164C87.0442 86.7916 86.9644 86.9405 86.9227 87.0142C86.9299 87.0761 86.9444 87.2014 86.9517 87.2648C86.9372 87.3504 86.9082 87.5214 86.8955 87.6054C86.861 87.6821 86.7957 87.8354 86.7631 87.9106L86.7848 88.0123C86.7685 88.092 86.7377 88.2512 86.7232 88.3323C86.6833 88.406 86.6016 88.5564 86.5617 88.6316C86.569 88.6935 86.5835 88.8188 86.5908 88.8822C86.5781 88.9663 86.5545 89.1373 86.5418 89.2213C86.5019 89.2965 86.4203 89.444 86.3786 89.5192C86.3858 89.5811 86.4003 89.7049 86.4076 89.7668C86.3949 89.8494 86.3695 90.0131 86.3568 90.0956C86.3241 90.1708 86.2589 90.3212 86.2244 90.3964L86.2462 90.4952C86.2262 90.6235 86.1863 90.8785 86.1663 91.0068C86.1337 91.082 86.0684 91.2338 86.0358 91.309L86.0575 91.4093C86.043 91.486 86.014 91.6422 85.9995 91.7204C85.9596 91.7941 85.878 91.943 85.8381 92.0182C85.8453 92.0801 85.858 92.2055 85.8653 92.2674C85.8526 92.3499 85.8254 92.5165 85.8127 92.6006C85.78 92.6758 85.7129 92.8276 85.6803 92.9028L85.702 93.006C85.6839 93.1491 85.6476 93.4351 85.6295 93.5781C85.5841 93.6533 85.4935 93.8037 85.4481 93.8789C85.4481 93.9437 85.4499 94.075 85.4499 94.1398L85.4517 94.2534L85.41 94.4023C85.3991 94.4318 85.3792 94.4907 85.3683 94.5202L85.3393 94.6116L85.2831 94.7473C85.2667 94.7797 85.2341 94.8431 85.2196 94.8741C85.2033 94.9419 85.1706 95.0761 85.1543 95.1424C85.1307 95.2456 85.0817 95.4535 85.0582 95.5582C85.0201 95.6422 84.9439 95.8118 84.9058 95.8958L84.9294 96.027C68.0145 95.9975 51.0924 96.0005 34.1775 96.0256C34.1812 95.9607 34.1884 95.8309 34.192 95.7646C34.1485 95.685 34.0633 95.5272 34.0197 95.4476C34.0016 95.3562 33.969 95.1763 33.9508 95.0849C33.9599 95.0215 33.9744 94.8932 33.9835 94.8298C33.9417 94.7546 33.8619 94.6028 33.822 94.5276C33.8075 94.4362 33.7785 94.2519 33.764 94.1605C33.7676 94.0956 33.7785 93.9673 33.7821 93.9025C33.7404 93.8273 33.657 93.6784 33.6135 93.6046C33.6153 93.5412 33.6171 93.4144 33.6189 93.351C33.6207 93.2891 33.6243 93.1653 33.6262 93.1048C33.5826 93.0282 33.4974 92.8778 33.4539 92.8026C33.4412 92.7067 33.4158 92.5151 33.4031 92.4207C33.4103 92.3544 33.4248 92.2246 33.4321 92.1598C33.3922 92.0831 33.3106 91.9312 33.2707 91.856L33.2489 91.7012C33.2543 91.6378 33.2616 91.511 33.267 91.4476C33.2924 91.2825 33.2416 91.1351 33.1165 91.0053C33.0984 90.9198 33.0639 90.7473 33.0476 90.6603C33.0548 90.5984 33.0693 90.4716 33.0766 90.4082C33.0367 90.333 32.9551 90.1856 32.9134 90.1104C32.9025 90.0263 32.8789 89.8568 32.8662 89.7727C32.8735 89.7093 32.888 89.5855 32.8952 89.5221C32.8553 89.4484 32.7737 89.2995 32.7338 89.2258C32.7211 89.1417 32.6975 88.9722 32.6848 88.8881C32.6921 88.8262 32.7066 88.7009 32.7138 88.6375C32.6739 88.5638 32.5923 88.4148 32.5524 88.3411C32.5397 88.2571 32.5162 88.0875 32.5035 88.0035C32.5107 87.9401 32.5252 87.8163 32.5325 87.7529C32.4926 87.6791 32.411 87.5302 32.3692 87.4565C32.3584 87.3725 32.3348 87.2029 32.3221 87.1189C32.3293 87.057 32.3438 86.9316 32.3529 86.8697C32.3112 86.796 32.2314 86.6471 32.1915 86.5719C32.1788 86.4878 32.1534 86.3198 32.1425 86.2357C32.1498 86.1738 32.1643 86.0485 32.1715 85.9851C32.1298 85.9114 32.0482 85.7625 32.0083 85.6887C31.9956 85.6032 31.972 85.4351 31.9593 85.3496C31.9666 85.2877 31.9811 85.1624 31.9884 85.1005C31.9485 85.0253 31.8668 84.8764 31.8269 84.8026C31.8142 84.7186 31.7907 84.5505 31.778 84.465C31.7852 84.4031 31.8015 84.2778 31.8088 84.2158C31.7671 84.1421 31.6873 83.9932 31.6474 83.9195C31.6347 83.8355 31.6093 83.6659 31.5984 83.5819C31.6057 83.5199 31.6202 83.3946 31.6256 83.3327C31.5857 83.2575 31.5041 83.1101 31.4642 83.0349C31.4515 82.9508 31.4261 82.7813 31.4152 82.6958C31.4225 82.6338 31.437 82.5085 31.4442 82.4451C31.4043 82.3714 31.3227 82.221 31.2828 82.1458C31.2701 82.0588 31.2429 81.8834 31.2302 81.7949C31.2357 81.7315 31.2484 81.6047 31.2556 81.5399C31.2139 81.4647 31.1323 81.3143 31.0906 81.2391L31.0688 81.0872C31.0742 81.0238 31.0833 80.897 31.0887 80.8336C31.1141 80.6685 31.067 80.5196 30.9455 80.3854C30.9328 80.297 30.9037 80.1186 30.891 80.0301C30.8747 79.9357 30.8457 79.747 30.8312 79.6527C30.8221 79.6247 30.8022 79.5686 30.7931 79.5406C30.7659 79.3991 30.7097 79.116 30.6825 78.973C30.6879 78.9081 30.6988 78.7769 30.7042 78.712C30.6607 78.6383 30.5755 78.4894 30.5319 78.4157C30.5337 78.3523 30.5356 78.2255 30.5374 78.1621C30.5392 78.1002 30.5428 77.9763 30.5446 77.9159C30.5011 77.8392 30.414 77.6888 30.3705 77.6136C30.3578 77.5163 30.3306 77.3217 30.3179 77.2259C30.3252 77.1595 30.3397 77.0283 30.3469 76.9619C30.3052 76.8838 30.2254 76.729 30.1855 76.6509L30.1547 76.4828C30.1547 76.4149 30.1547 76.2808 30.1547 76.213L30.1583 76.1112C30.1202 76.0331 30.0404 75.8753 30.0005 75.7957L29.9715 75.6158C29.9715 75.5465 29.9733 75.408 29.9733 75.3372L29.9787 75.2355C29.9388 75.1558 29.8608 74.9966 29.8209 74.917L29.7901 74.7371C29.7919 74.6678 29.7937 74.5292 29.7956 74.4599L29.7992 74.3582C29.7611 74.2801 29.6831 74.1253 29.645 74.0471L29.6214 73.879C29.6251 73.8142 29.6359 73.6829 29.6414 73.6166C29.6668 73.45 29.6178 73.2996 29.4927 73.1669C29.4745 73.0814 29.4382 72.9074 29.4219 72.8204C29.4292 72.7585 29.4437 72.6317 29.4509 72.5683C29.4092 72.4931 29.3276 72.3457 29.2859 72.2705C29.275 72.1865 29.2514 72.0169 29.2387 71.9329C29.246 71.8709 29.2605 71.7456 29.2696 71.6837C29.2279 71.6085 29.1481 71.4611 29.1063 71.3859C29.0955 71.3018 29.0701 71.1338 29.0592 71.0497C29.0664 70.9878 29.0809 70.8625 29.0882 70.8005C29.0465 70.7268 28.9649 70.5794 28.9231 70.5057C28.9123 70.4246 28.8905 70.2609 28.8796 70.1798C28.8941 70.1179 28.9213 69.9941 28.934 69.9321C28.8959 69.8599 28.8198 69.7154 28.7817 69.6432L28.6475 69.5768ZM58.4108 81.8716L58.2403 81.9158L58.117 81.8937C58.0789 81.9202 58.0063 81.9719 57.9701 81.9984L57.7687 82.0706C57.718 82.0913 57.6146 82.1326 57.5638 82.1532L57.3752 82.2372C57.3316 82.2579 57.2482 82.3021 57.2065 82.3228C57.1666 82.3463 57.0868 82.3935 57.0469 82.4171L56.8836 82.5262C56.8492 82.5528 56.7803 82.6073 56.7458 82.6338C56.715 82.6619 56.6551 82.7194 56.6243 82.7474L56.5118 82.8756C56.4864 82.9096 56.4357 82.9803 56.4103 83.0142L56.3323 83.1499C56.3032 83.1794 56.2488 83.2369 56.2216 83.2663L56.2597 83.3578C56.2597 83.5214 56.2597 83.8487 56.2597 84.0124L56.2216 84.1038C56.2488 84.1333 56.3032 84.1923 56.3305 84.2203L56.4103 84.3559C56.4357 84.3898 56.4864 84.4606 56.5118 84.4945L56.6243 84.6228C56.6551 84.6508 56.715 84.7083 56.7458 84.7363C56.7803 84.7643 56.8492 84.8174 56.8836 84.8454L57.0451 84.953C57.085 84.9766 57.1666 85.0238 57.2065 85.0474C57.2482 85.0695 57.3316 85.1123 57.3734 85.1344L57.5638 85.2169C57.6146 85.2376 57.718 85.2789 57.7687 85.2995L57.9701 85.3732C58.0063 85.3983 58.0789 85.4499 58.1152 85.4764L58.2385 85.4543L58.4108 85.4985C58.4453 85.5207 58.5142 85.5634 58.5486 85.5841L58.6665 85.5944C58.7554 85.6018 58.9313 85.6165 59.0202 85.6239C59.5444 85.7123 60.0903 85.7123 60.6163 85.6239C60.7034 85.6165 60.8811 85.6018 60.9682 85.5944L61.0879 85.5841C61.1223 85.5634 61.1913 85.5207 61.2257 85.4985L61.398 85.4543L61.5214 85.4764C61.5576 85.4499 61.6302 85.3983 61.6665 85.3717L61.8678 85.2995C61.9186 85.2789 62.0219 85.2376 62.0727 85.2169L62.2614 85.1329C62.3049 85.1123 62.3883 85.068 62.43 85.0474C62.4699 85.0238 62.5497 84.9766 62.5915 84.953L62.7529 84.8439C62.7873 84.8174 62.8563 84.7628 62.8907 84.7363C62.9216 84.7083 62.9814 84.6508 63.0122 84.6228L63.1247 84.4945C63.1501 84.4606 63.2009 84.3898 63.2263 84.3559L63.3061 84.2203C63.3333 84.1923 63.3877 84.1333 63.4149 84.1053L63.3768 84.0124C63.3768 83.8487 63.3768 83.5214 63.3768 83.3578L63.4149 83.2649C63.3877 83.2369 63.3333 83.1779 63.3061 83.1499L63.2263 83.0142C63.2009 82.9803 63.1501 82.9096 63.1247 82.8756L63.0122 82.7474C62.9814 82.7194 62.9216 82.6619 62.8907 82.6338C62.8563 82.6058 62.7873 82.5528 62.7529 82.5247L62.5915 82.4171C62.5497 82.3935 62.4699 82.3463 62.43 82.3228C62.3883 82.3006 62.3049 82.2579 62.2614 82.2358L62.0727 82.1532C62.0219 82.1326 61.9186 82.0913 61.8678 82.0706L61.6665 81.9969C61.6302 81.9719 61.5576 81.9202 61.5214 81.8937L61.398 81.9158L61.2257 81.8716C61.1913 81.8495 61.1223 81.8067 61.0879 81.7861L60.9682 81.7758C60.8811 81.7684 60.7034 81.7536 60.6163 81.7477C60.0921 81.6578 59.5444 81.6578 59.022 81.7463C58.9332 81.7536 58.7554 81.7684 58.6684 81.7758L58.5505 81.7861C58.516 81.8067 58.4453 81.8495 58.4108 81.8716Z" fill="#9C27B0"/>
<path d="M85.0386 41.6172C88.3694 41.6172 91.9778 37.0322 91.9778 32.5269C91.9778 28.0216 88.3298 26.0282 85.0386 26.0282C81.7078 26.0282 78.3374 28.2609 78.3374 32.7661C78.3374 37.2714 81.7078 41.6172 85.0386 41.6172Z" fill="#9C27B0"/>
<path d="M91.3804 42.2288C91.2198 42.1472 90.8986 42.0249 90.8986 42.0249L84.5142 49.4047L78.3307 41.9434C78.3307 41.9434 77.889 42.1065 77.6882 42.188C75.5601 43.085 73.7131 44.4305 72.3077 46.0206C71.5047 45.5313 70.6615 45.1236 69.7781 44.7566C69.5372 44.6343 69.0553 44.4712 69.0553 44.4712L59.6997 55.3166L50.6653 44.3489C50.6653 44.3489 50.0228 44.5936 49.7016 44.7566C48.6576 45.1644 47.694 45.6944 46.7705 46.2244C45.3249 44.4305 43.3575 42.9219 41.0286 41.9026C40.868 41.821 40.5467 41.6987 40.5467 41.6987L34.1624 49.1193L28.019 41.6172C28.019 41.6172 27.5773 41.7803 27.3766 41.8618C22.3575 44.0227 18.9043 48.4669 18.9043 53.5634C18.9043 54.4196 18.9846 55.2759 19.1854 56.0913C23.0401 57.8853 28.2599 59.0269 34.0018 59.0269C35.2466 59.0269 36.411 58.9454 37.5754 58.8638C37.3747 59.8423 37.2944 60.8616 37.2944 61.8809C37.2944 63.1449 37.3345 64.6709 37.5754 65.8532C44.2365 65.975 51.0267 65.975 59.4588 65.975C68.1318 65.975 75.4145 65.975 81.7475 65.975C81.9885 64.8742 82.0649 63.1041 82.0649 61.9217C82.0649 61.0247 81.9846 60.1685 81.8641 59.3123C82.6672 59.3531 83.5104 59.3939 84.3536 59.3939C90.2561 59.3939 95.6366 58.2115 99.5314 56.2952C99.692 55.5205 99.7724 54.7458 99.7724 53.9712C99.7724 48.7931 96.3594 44.3897 91.3804 42.2288Z" fill="#9C27B0"/>
<path d="M35.3487 41.6172C38.6795 41.6172 42.2879 37.0322 42.2879 32.5269C42.2879 28.0216 38.6795 26.0282 35.3487 26.0282C32.0179 26.0282 28.6475 28.2609 28.6475 32.7661C28.6475 37.2714 32.0576 41.6172 35.3487 41.6172Z" fill="#9C27B0"/>
<path d="M60.13 45.5144C65.1135 45.5144 70.5426 38.9051 70.5426 32.4131C70.5426 25.921 65.1135 23.1052 60.13 23.1052C55.187 23.1052 50.082 26.3121 50.082 32.765C50.082 39.2179 55.187 45.5144 60.13 45.5144Z" fill="#9C27B0"/>
</svg>
